<svg width="32" height="32" viewBox="0 0 32 32" fill="none" xmlns="http://www.w3.org/2000/svg">
<rect width="32" height="32" rx="16" fill="#D8D8D8"/>
<path d="M16 4C12.6916 4 10 6.72051 10 10.0645C10 13.4084 12.6916 16.1289 16 16.1289C19.3084 16.1289 22 13.4084 22 10.0645C22 6.72051 19.3084 4 16 4ZM23.4652 20.0908C21.8225 18.405 19.6448 17.4766 17.3333 17.4766H14.6667C12.3552 17.4766 10.1775 18.405 8.53484 20.0908C6.90022 21.7684 6 23.9827 6 26.3262C6 26.6983 6.29849 27 6.66667 27H25.3333C25.7015 27 26 26.6983 26 26.3262C26 23.9827 25.0998 21.7684 23.4652 20.0908Z" fill="#2E3A59"/>
</svg>
